<?xml version="1.0" standalone="no"?><!DOCTYPE svg PUBLIC "-//W3C//DTD SVG 1.1//EN" "http://www.w3.org/Graphics/SVG/1.1/DTD/svg11.dtd"><svg t="1606586904100" class="icon" viewBox="0 0 1024 1024" version="1.1" xmlns="http://www.w3.org/2000/svg" p-id="3989" xmlns:xlink="http://www.w3.org/1999/xlink" width="200" height="200"><defs><style type="text/css"></style></defs><path d="M511.503 106.596c54.828 0 107.994 10.729 158.021 31.888 48.341 20.447 91.765 49.727 129.065 87.027 37.3 37.3 66.58 80.723 87.027 129.065 21.16 50.027 31.888 103.193 31.888 158.021s-10.729 107.994-31.888 158.021c-20.447 48.341-49.727 91.765-87.027 129.065-37.3 37.3-80.723 66.58-129.065 87.027-50.027 21.16-103.193 31.888-158.021 31.888s-107.994-10.729-158.021-31.888c-48.341-20.447-91.765-49.727-129.065-87.027-37.3-37.3-66.58-80.723-87.027-129.065-21.16-50.027-31.888-103.193-31.888-158.021s10.729-107.994 31.888-158.021c20.447-48.341 49.727-91.765 87.027-129.065 37.3-37.3 80.723-66.58 129.065-87.027 50.027-21.159 103.193-31.888 158.021-31.888m0-42c-247.423 0-448 200.577-448 448s200.577 448 448 448 448-200.577 448-448-200.577-448-448-448z" fill="#ffffff" p-id="3990"></path><path d="M363.01 338.094h92v384h-92zM571.112 338.094h92v384h-92z" fill="#ffffff" p-id="3991"></path></svg>